HIERARCHY
ROOT Hips
{
	OFFSET -0.001795 -0.223333 0.028219
	CHANNELS 6 Xposition Yposition Zposition Zrotation Yrotation Xrotation 
	JOINT LeftUpLeg
	{
		OFFSET 0.069520 -0.091406 -0.006815
		CHANNELS 3 Zrotation Yrotation Xrotation
		JOINT LeftLeg
		{
			OFFSET 0.034277 -0.375199 -0.004496
			CHANNELS 3 Zrotation Yrotation Xrotation
			JOINT LeftFoot
			{
				OFFSET -0.013596 -0.397961 -0.043693
				CHANNELS 3 Zrotation Yrotation Xrotation
				JOINT LeftToe
				{
					OFFSET 0.026358 -0.055791 0.119288
					CHANNELS 3 Zrotation Yrotation Xrotation
					End Site
					{
						OFFSET 0.000000 0.000000 0.000000
					}
				}
			}
		}
	}
	JOINT RightUpLeg
	{
		OFFSET -0.067670 -0.090522 -0.004320
		CHANNELS 3 Zrotation Yrotation Xrotation
		JOINT RightLeg
		{
			OFFSET -0.038290 -0.382569 -0.008850
			CHANNELS 3 Zrotation Yrotation Xrotation
			JOINT RightFoot
			{
				OFFSET 0.015774 -0.398415 -0.042312
				CHANNELS 3 Zrotation Yrotation Xrotation
				JOINT RightToe
				{
					OFFSET -0.025372 -0.048144 0.123348
					CHANNELS 3 Zrotation Yrotation Xrotation
					End Site
					{
						OFFSET 0.000000 0.000000 0.000000
					}
				}
			}
		}
	}
	JOINT Spine
	{
		OFFSET -0.002533 0.108963 -0.026696
		CHANNELS 3 Zrotation Yrotation Xrotation
		JOINT Spine1
		{
			OFFSET 0.005487 0.135180 0.001092
			CHANNELS 3 Zrotation Yrotation Xrotation
			JOINT Spine2
			{
				OFFSET 0.001457 0.052922 0.025425
				CHANNELS 3 Zrotation Yrotation Xrotation
				JOINT Neck
				{
					OFFSET -0.002778 0.213870 -0.042857
					CHANNELS 3 Zrotation Yrotation Xrotation
					JOINT Head
					{
						OFFSET 0.005152 0.064970 0.051349
						CHANNELS 3 Zrotation Yrotation Xrotation
						End Site
						{
							OFFSET 0.000000 0.000000 0.000000
						}
					}
				}
				JOINT LeftShoulder
				{
					OFFSET 0.078845 0.121749 -0.034090
					CHANNELS 3 Zrotation Yrotation Xrotation
					JOINT LeftArm
					{
						OFFSET 0.090977 0.030469 -0.008868
						CHANNELS 3 Zrotation Yrotation Xrotation
						JOINT LeftForeArm
						{
							OFFSET 0.259612 -0.012772 -0.027456
							CHANNELS 3 Zrotation Yrotation Xrotation
							JOINT LeftHand
							{
								OFFSET 0.249234 0.008986 -0.001171
								CHANNELS 3 Zrotation Yrotation Xrotation
								End Site
								{
									OFFSET 0.000000 0.000000 0.000000
								}
							}
						}
					}
				}
				JOINT RightShoulder
				{
					OFFSET -0.081759 0.118833 -0.038615
					CHANNELS 3 Zrotation Yrotation Xrotation
					JOINT RightArm
					{
						OFFSET -0.096012 0.032551 -0.009143
						CHANNELS 3 Zrotation Yrotation Xrotation
						JOINT RightForeArm
						{
							OFFSET -0.253742 -0.013329 -0.021401
							CHANNELS 3 Zrotation Yrotation Xrotation
							JOINT RightHand
							{
								OFFSET -0.255298 0.007772 -0.005559
								CHANNELS 3 Zrotation Yrotation Xrotation
								End Site
								{
									OFFSET 0.000000 0.000000 0.000000
								}
							}
						}
					}
				}
			}
		}
	}
}
MOTION
Frames: 12
Frame Time: 0.050000
0.000000 0.952613 0.000000 -0.092229 -1.699171 6.195820 3.457331 -0.262956 -2.891084 1.447260 -0.218363 1.294850 2.558190 8.779190 12.915347 0.000000 0.000000 0.000000 -0.796041 0.287395 -2.756928 -3.011690 0.058990 -3.700487 -0.828918 -7.384175 14.013047 0.000000 0.000000 0.000000 4.875981 0.490617 -7.402103 -3.431885 1.591673 -1.988929 -5.201607 5.087184 -2.049747 11.878985 -6.509652 -10.841145 0.000000 0.000000 0.000000 -4.848998 -16.427524 5.328756 -37.339383 -42.820074 8.959682 -18.698744 -69.408164 14.182399 0.000000 0.000000 0.000000 -6.010533 11.846604 3.856768 7.564654 32.712791 0.125212 -15.510678 34.711037 -2.869760 0.000000 0.000000 0.000000 
-0.000159 0.953436 0.000730 -0.704898 -2.730900 7.206136 3.413645 -0.253089 -2.673701 2.428799 -0.238834 -0.566047 3.047791 9.564911 13.607230 0.000000 0.000000 0.000000 -0.003646 0.400556 -4.052462 -3.888107 0.122371 -3.547778 0.420474 -5.471714 14.574770 0.000000 0.000000 0.000000 5.854852 0.541335 -7.629872 -4.197194 1.927334 -2.045070 -5.474108 6.775807 -2.810853 13.852140 -7.617516 -11.247659 0.000000 0.000000 0.000000 -5.594166 -15.328858 4.747249 -34.154545 -38.735503 6.848929 -29.903102 -72.475602 22.902980 0.000000 0.000000 0.000000 -5.923395 8.743462 2.873044 10.143052 28.374712 0.449771 -14.104451 38.157076 -2.526759 0.000000 0.000000 0.000000 
0.000115 0.953267 0.001446 -0.492006 -2.610937 6.532517 3.363542 -0.200568 -1.912714 2.107980 -0.204121 -0.588236 2.934722 9.381622 13.486327 0.000000 0.000000 0.000000 -0.302659 0.342965 -3.433560 -3.912780 0.108026 -3.790929 0.501896 -5.643721 15.590973 0.000000 0.000000 0.000000 6.191234 0.436319 -6.330058 -3.396971 1.539519 -3.873611 -6.639921 7.103665 -2.027346 12.983800 -7.834482 -8.404260 0.000000 0.000000 0.000000 -7.275660 -11.424253 3.054966 -31.918063 -34.520562 5.180230 -35.133440 -71.247516 26.094161 0.000000 0.000000 0.000000 -4.021236 6.600123 2.250726 11.243362 25.788562 0.399201 -17.062631 41.788163 -3.719192 0.000000 0.000000 0.000000 
0.000790 0.953078 0.002636 -0.394343 -0.508706 7.622361 3.622382 -0.283725 -2.909396 1.984468 -0.137690 -1.466245 1.895626 7.938806 13.268344 0.000000 0.000000 0.000000 -0.524872 0.430164 -4.261782 -3.295077 0.109060 -3.301752 -0.661136 -7.111176 14.774958 0.000000 0.000000 0.000000 6.317401 0.483361 -7.243108 -3.180287 1.465052 -3.246921 -7.484316 6.013304 -2.144423 13.611838 -8.369346 -7.994780 0.000000 0.000000 0.000000 -8.624454 -9.673024 2.189517 -29.281503 -31.369697 3.985406 -21.548444 -66.593614 14.819030 0.000000 0.000000 0.000000 -3.339684 1.739582 0.651191 12.623780 22.003469 0.279797 -15.987102 43.061436 -3.314750 0.000000 0.000000 0.000000 
0.001464 0.951486 0.004372 -0.237058 -0.208632 7.673444 3.269220 -0.281410 -2.868838 2.312624 -0.164872 -1.511533 1.837022 7.764134 12.772523 0.000000 0.000000 0.000000 -0.780688 0.441985 -4.368175 -3.267113 0.157160 -2.586578 -0.764874 -6.889030 13.484644 0.000000 0.000000 0.000000 5.890283 0.435072 -6.911264 -2.519678 1.179356 -3.372035 -7.720302 4.839674 -1.698495 12.715522 -8.228645 -6.392443 0.000000 0.000000 0.000000 -10.307512 -7.667336 1.312182 -25.750765 -26.285894 2.404434 -5.049843 -59.781593 3.833716 0.000000 0.000000 0.000000 -1.670456 -0.622645 -0.154587 13.784813 17.169906 -0.033154 -15.228083 45.457222 -3.363840 0.000000 0.000000 0.000000 
0.002336 0.950347 0.006236 -0.312163 -0.220923 7.746823 2.727396 -0.277238 -2.850311 3.304297 -0.261706 -1.442568 1.961698 7.876590 12.407815 0.000000 0.000000 0.000000 -1.079002 0.444087 -4.371984 -2.824716 0.158776 -2.015395 -0.587320 -6.160565 12.135929 0.000000 0.000000 0.000000 6.012662 0.441226 -6.950517 -2.459698 1.153252 -3.728284 -7.505200 4.566937 -0.787602 11.812093 -7.586454 -6.528257 0.000000 0.000000 0.000000 -10.766638 -6.262082 0.733761 -23.439725 -22.797854 1.470855 3.177175 -50.568963 -0.527820 0.000000 0.000000 0.000000 -0.323427 -3.150095 -1.093939 15.322916 13.770482 -0.285862 -13.963887 45.413452 -2.919871 0.000000 0.000000 0.000000 
0.003064 0.949144 0.007923 -0.272003 -0.222035 7.943123 2.570817 -0.277756 -2.852772 3.425127 -0.262393 -1.603558 2.033312 7.911247 12.078924 0.000000 0.000000 0.000000 -1.281267 0.502654 -5.011439 -2.633653 0.203645 -1.039917 -0.739842 -6.273684 11.546334 0.000000 0.000000 0.000000 5.990250 0.435231 -6.935690 -2.081721 0.990899 -3.848791 -7.232059 3.629222 0.010675 11.129941 -6.882862 -7.605282 0.000000 0.000000 0.000000 -11.519702 -4.470001 0.031101 -22.124827 -20.221767 0.889173 7.651510 -40.526639 -1.844145 0.000000 0.000000 0.000000 0.241708 -4.988649 -1.778421 17.233695 11.613301 -0.446710 -12.667541 43.658837 -2.477068 0.000000 0.000000 0.000000 
0.003756 0.948575 0.009009 -0.216055 -0.175543 7.936002 2.437890 -0.243795 -2.376148 3.490064 -0.222417 -2.311252 1.992321 7.834312 12.015047 0.000000 0.000000 0.000000 -1.643158 0.493027 -4.900379 -2.169694 0.158503 -1.076580 -0.786720 -6.300972 11.370802 0.000000 0.000000 0.000000 6.190410 0.421727 -6.742373 -2.049223 0.977600 -3.869569 -7.216363 3.588455 0.393253 10.155233 -6.165950 -7.781076 0.000000 0.000000 0.000000 -12.103682 -4.401974 -0.058280 -22.262529 -18.576314 0.644152 9.416686 -34.645296 -2.059719 0.000000 0.000000 0.000000 1.636349 -5.777655 -2.188916 19.111976 10.095198 -0.615814 -13.031474 41.061879 -2.462041 0.000000 0.000000 0.000000 
0.004277 0.948374 0.009478 -0.289746 -0.198330 7.848850 2.550682 -0.225478 -2.099537 3.368838 -0.196285 -2.561662 2.004024 7.832263 11.946087 0.000000 0.000000 0.000000 -1.489311 0.483808 -4.800885 -2.364294 0.179253 -1.033456 -0.782035 -6.283357 11.324371 0.000000 0.000000 0.000000 6.184619 0.402869 -6.524387 -2.107028 1.001302 -3.604984 -6.919726 3.356455 0.658286 9.757867 -5.802975 -8.250435 0.000000 0.000000 0.000000 -11.900650 -4.836711 0.221689 -23.378118 -17.646318 0.536448 10.091225 -31.842648 -2.034793 0.000000 0.000000 0.000000 3.335618 -5.472812 -2.236230 21.152882 10.157978 -0.613546 -13.110486 35.996934 -2.216036 0.000000 0.000000 0.000000 
0.004580 0.948179 0.009612 -0.316063 -0.134500 7.376145 2.994623 -0.209231 -1.813396 2.622133 -0.157279 -2.151912 1.983327 7.740023 11.684755 0.000000 0.000000 0.000000 -1.520883 0.446259 -4.391966 -2.267386 0.184813 -0.800631 -0.819630 -6.302845 11.175177 0.000000 0.000000 0.000000 6.041458 0.346162 -5.852108 -1.854476 0.896167 -3.867100 -6.774710 3.410418 1.246640 9.474458 -5.480028 -8.913044 0.000000 0.000000 0.000000 -12.599782 -5.053494 0.249453 -25.331001 -17.056519 0.510933 8.748423 -32.232493 -1.673292 0.000000 0.000000 0.000000 5.444672 -4.709190 -2.116109 23.382992 10.093674 -0.664221 -13.121878 32.315666 -1.983203 0.000000 0.000000 0.000000 
0.004756 0.948192 0.009555 -0.474882 0.092998 7.139867 3.174041 -0.176515 -1.269603 2.660372 -0.127226 -2.723090 1.846581 7.541649 11.686036 0.000000 0.000000 0.000000 -1.347474 0.403306 -3.923938 -2.229200 0.163049 -1.128255 -0.868458 -6.408799 11.310273 0.000000 0.000000 0.000000 5.835595 0.325414 -5.628259 -1.513858 0.748217 -3.423823 -6.802805 3.436909 1.347133 10.138257 -5.794254 -9.534586 0.000000 0.000000 0.000000 -13.416749 -5.897308 0.513930 -28.219609 -16.302167 0.517170 5.233397 -33.839142 -0.719015 0.000000 0.000000 0.000000 7.705603 -3.962870 -1.969659 26.776669 10.500288 -0.614261 -12.652191 29.377491 -1.663730 0.000000 0.000000 0.000000 
0.004911 0.947606 0.009421 -0.828494 -0.256896 7.025697 3.561928 -0.176785 -1.203735 2.545280 -0.132327 -2.492333 2.104661 7.851080 11.396858 0.000000 0.000000 0.000000 -1.201403 0.408657 -3.997439 -1.898574 0.145168 -0.878335 -0.710210 -6.094912 11.129118 0.000000 0.000000 0.000000 5.920757 0.321149 -5.502926 -1.629979 0.795659 -3.381323 -6.266767 3.564885 2.129853 9.908386 -5.458657 -10.538565 0.000000 0.000000 0.000000 -14.938638 -6.071023 0.502577 -31.693885 -15.644687 0.450361 -0.474820 -37.328121 1.125606 0.000000 0.000000 0.000000 10.229812 -3.100554 -1.776109 31.019279 10.556641 -0.640440 -10.934018 28.807758 -1.255303 0.000000 0.000000 0.000000 
